<svg width="32" height="32" viewBox="0 0 32 32" fill="none" xmlns="http://www.w3.org/2000/svg">
<rect width="32" height="32" fill="#CBCE58"/>
<path d="M16.0026 13.9997C14.8977 13.9997 14.0026 14.8951 14.0026 15.9997C14.0026 17.1045 14.898 17.9997 16.0026 17.9997C17.1075 17.9997 18.0026 17.1043 18.0026 15.9997C18.0026 14.8948 17.1072 13.9997 16.0026 13.9997ZM16.0026 12.6663C17.8429 12.6663 19.336 14.1577 19.336 15.9997C19.336 17.84 17.8446 19.333 16.0026 19.333C14.1623 19.333 12.6693 17.8416 12.6693 15.9997C12.6693 14.1594 14.1607 12.6663 16.0026 12.6663ZM20.336 12.4991C20.336 12.9592 19.9621 13.3325 19.5026 13.3325C19.0426 13.3325 18.6693 12.9586 18.6693 12.4991C18.6693 12.0396 19.0431 11.6663 19.5026 11.6663C19.9615 11.6658 20.336 12.0396 20.336 12.4991ZM16.0026 10.6663C14.353 10.6663 14.0841 10.6707 13.3168 10.7049C12.7941 10.7294 12.4436 10.7997 12.1181 10.9261C11.8287 11.0383 11.62 11.1723 11.3976 11.3947C11.1744 11.6179 11.0406 11.8261 10.9289 12.1156C10.8022 12.4419 10.7319 12.7917 10.7078 13.3138C10.6733 14.0498 10.6693 14.307 10.6693 15.9997C10.6693 17.6493 10.6736 17.9182 10.7078 18.6854C10.7324 19.2079 10.8028 19.5589 10.9288 19.8837C11.0414 20.1734 11.1756 20.3826 11.3969 20.6039C11.621 20.8277 11.8298 20.9619 12.1165 21.0726C12.4461 21.2 12.7963 21.2704 13.3167 21.2945C14.0527 21.3289 14.31 21.333 16.0026 21.333C17.6523 21.333 17.9212 21.3286 18.6884 21.2945C19.2098 21.27 19.561 21.1994 19.8866 21.0734C20.1756 20.9612 20.3854 20.8265 20.6069 20.6053C20.831 20.3809 20.965 20.1726 21.0758 19.8852C21.2028 19.5569 21.2734 19.2062 21.2974 18.6856C21.3319 17.9495 21.336 17.6923 21.336 15.9997C21.336 14.35 21.3316 14.0811 21.2974 13.3139C21.2729 12.7924 21.2023 12.4407 21.0762 12.1151C20.9642 11.8266 20.8298 11.6172 20.6076 11.3947C20.384 11.1711 20.1764 11.0376 19.8867 10.926C19.5606 10.7994 19.2102 10.729 18.6885 10.7049C17.9525 10.6704 17.6952 10.6663 16.0026 10.6663ZM16.0026 9.33301C17.8137 9.33301 18.0398 9.33967 18.751 9.37301C19.4604 9.40579 19.9443 9.51801 20.3693 9.68301C20.8087 9.85245 21.1798 10.0813 21.5504 10.4519C21.9204 10.8225 22.1493 11.1947 22.3193 11.633C22.4837 12.0575 22.596 12.5419 22.6293 13.2513C22.661 13.9625 22.6693 14.1886 22.6693 15.9997C22.6693 17.8108 22.6626 18.0369 22.6293 18.748C22.5965 19.4575 22.4837 19.9413 22.3193 20.3663C22.1498 20.8058 21.9204 21.1769 21.5504 21.5475C21.1798 21.9175 20.807 22.1463 20.3693 22.3163C19.9443 22.4808 19.4604 22.593 18.751 22.6263C18.0398 22.658 17.8137 22.6663 16.0026 22.6663C14.1915 22.6663 13.9654 22.6597 13.2543 22.6263C12.5448 22.5935 12.0615 22.4808 11.6359 22.3163C11.197 22.1469 10.8254 21.9175 10.4548 21.5475C10.0843 21.1769 9.85594 20.8041 9.68594 20.3663C9.52094 19.9413 9.40927 19.4575 9.37594 18.748C9.34427 18.0369 9.33594 17.8108 9.33594 15.9997C9.33594 14.1886 9.3426 13.9625 9.37594 13.2513C9.40871 12.5413 9.52094 12.058 9.68594 11.633C9.85538 11.1941 10.0843 10.8225 10.4548 10.4519C10.8254 10.0813 11.1976 9.85301 11.6359 9.68301C12.0609 9.51801 12.5443 9.40634 13.2543 9.37301C13.9654 9.34134 14.1915 9.33301 16.0026 9.33301Z" fill="#124039"/>
</svg>
