<svg width="22" height="28" viewBox="0 0 22 28" fill="none" xmlns="http://www.w3.org/2000/svg">
<g clip-path="url(#clip0_2799_1317)">
<path d="M11 6C10.0111 6 9.0444 6.29325 8.2221 6.84265C7.3999 7.39206 6.759 8.173 6.3806 9.0866C6.0022 10.0002 5.9031 11.0055 6.0961 11.9755C6.289 12.9454 6.7652 13.8363 7.4645 14.5355C8.1637 15.2348 9.0546 15.711 10.0245 15.9039C10.9945 16.0969 11.9998 15.9978 12.9134 15.6194C13.827 15.241 14.6079 14.6001 15.1573 13.7779C15.7068 12.9556 16 11.9889 16 11C16 9.6739 15.4732 8.4021 14.5355 7.46447C13.5979 6.52678 12.3261 6 11 6ZM11 14C10.4067 14 9.8266 13.8241 9.3333 13.4944C8.8399 13.1648 8.4554 12.6962 8.2284 12.1481C8.0013 11.5999 7.9419 10.9967 8.0576 10.4147C8.1734 9.8328 8.4591 9.2982 8.8787 8.8787C9.2982 8.4591 9.8328 8.1734 10.4147 8.0576C10.9967 7.94189 11.5999 8.0013 12.1481 8.2284C12.6962 8.4554 13.1648 8.8399 13.4944 9.3333C13.8241 9.8266 14 10.4067 14 11C14 11.7956 13.6839 12.5587 13.1213 13.1213C12.5587 13.6839 11.7956 14 11 14ZM11 0C8.0836 0.00331 5.2877 1.1633 3.22548 3.22548C1.1633 5.28766 0.00331 8.0836 0 11C0 14.925 1.81375 19.085 5.25 23.0312C6.794 24.8145 8.5318 26.4202 10.4312 27.8188C10.5994 27.9365 10.7997 27.9997 11.005 27.9997C11.2103 27.9997 11.4106 27.9365 11.5788 27.8188C13.4747 26.4196 15.2091 24.8139 16.75 23.0312C20.1813 19.085 22 14.925 22 11C21.9967 8.0836 20.8367 5.28766 18.7745 3.22548C16.7123 1.1633 13.9164 0.00331 11 0ZM11 25.75C8.9337 24.125 2 18.1562 2 11C2 8.6131 2.94821 6.32387 4.63604 4.63604C6.3239 2.94821 8.6131 2 11 2C13.3869 2 15.6761 2.94821 17.364 4.63604C19.0518 6.32387 20 8.6131 20 11C20 18.1537 13.0663 24.125 11 25.75Z" fill="#E9A7BA"/>
</g>
<defs>
<clipPath id="clip0_2799_1317">
<rect width="22" height="28" fill="white"/>
</clipPath>
</defs>
</svg>
