<svg width="287" height="48" viewBox="0 0 287 48" fill="none" xmlns="http://www.w3.org/2000/svg">
<path d="M96.1126 26.6355V40.5H88.0524V25.7331C88.0524 21.7542 85.4394 19.0469 81.5668 18.9922C77.6941 19.0538 75.0811 21.7542 75.0811 25.7331V40.5H42.5656V25.7331C42.5656 21.7063 39.899 18.9854 35.9526 18.9854C32.0063 18.9854 29.3396 21.7063 29.3396 25.7331V40.5H21.2795V25.7331C21.2795 21.7063 18.6128 18.9854 14.6665 18.9854C10.7201 18.9854 8.0535 21.7063 8.0535 25.7331V40.5H0V26.6355C0 16.8866 5.11216 11.6088 14.1707 11.6088C19.2828 11.6088 22.8942 13.7076 25.3397 16.2576C27.7852 13.7076 31.4502 11.6088 36.6226 11.6088C45.6275 11.6088 50.6258 16.8797 50.6258 26.6355V32.2756H67.0276V26.6355C67.0276 16.8797 72.1397 11.6088 81.1983 11.6088C81.3256 11.6088 81.4462 11.6156 81.5735 11.6156C81.7008 11.6156 81.8214 11.6088 81.9487 11.6088C91.0072 11.6088 96.1193 16.8797 96.1193 26.6355M112.829 11.6088C112.702 11.6088 112.581 11.6156 112.454 11.6156C112.327 11.6156 112.206 11.6088 112.079 11.6088C103.02 11.6088 97.9083 16.8797 97.9083 26.6355V40.5H105.968V25.7331C105.968 21.7542 108.581 19.0469 112.454 18.9922C116.327 19.0538 118.94 21.7542 118.94 25.7331V40.5H127V26.6355C127 16.8797 121.888 11.6088 112.829 11.6088ZM58.753 15.7175C60.9774 15.7175 62.7797 13.8785 62.7797 11.6088C62.7797 9.33903 60.9774 7.5 58.753 7.5C56.5286 7.5 54.7262 9.33903 54.7262 11.6088C54.7262 13.8785 56.5286 15.7175 58.753 15.7175Z" fill="#CBCE58"/>
<path d="M159.068 29.1828C159.126 29.2409 159.172 29.3098 159.203 29.3857C159.235 29.4616 159.251 29.5429 159.251 29.625C159.251 29.7071 159.235 29.7885 159.203 29.8643C159.172 29.9402 159.126 30.0091 159.068 30.0672C159.009 30.1253 158.941 30.1713 158.865 30.2028C158.789 30.2342 158.707 30.2504 158.625 30.2504C158.543 30.2504 158.462 30.2342 158.386 30.2028C158.31 30.1713 158.241 30.1253 158.183 30.0672L153 24.8836L147.818 30.0672C147.7 30.1845 147.541 30.2504 147.375 30.2504C147.209 30.2504 147.05 30.1845 146.933 30.0672C146.816 29.9499 146.75 29.7909 146.75 29.625C146.75 29.4592 146.816 29.3001 146.933 29.1828L152.117 24L146.933 18.8172C146.816 18.6999 146.75 18.5409 146.75 18.375C146.75 18.2092 146.816 18.0501 146.933 17.9328C147.05 17.8155 147.209 17.7497 147.375 17.7497C147.541 17.7497 147.7 17.8155 147.818 17.9328L153 23.1164L158.183 17.9328C158.3 17.8155 158.459 17.7497 158.625 17.7497C158.791 17.7497 158.95 17.8155 159.068 17.9328C159.185 18.0501 159.251 18.2092 159.251 18.375C159.251 18.5409 159.185 18.6999 159.068 18.8172L153.884 24L159.068 29.1828Z" fill="#CBCE58"/>
<g clip-path="url(#clip0_1558_2779)">
<path d="M184.444 21.333V48H179V21.333H184.444ZM227.996 0V26.667H195.332V42.666H200.776V32H206.221V42.666H211.665V32H227.996V37.333H217.107V48H189.889V21.333H222.552V5.33398H217.107V16H211.665V5.33398H184.444V10.667H206.221V16H179V0H227.996Z" fill="#CBCE58"/>
<path d="M227.999 45.3332C227.999 43.8604 226.78 42.6664 225.277 42.6664C223.773 42.6664 222.555 43.8604 222.555 45.3332C222.555 46.806 223.773 48 225.277 48C226.78 48 227.999 46.806 227.999 45.3332Z" fill="#CBCE58"/>
<path d="M240.868 3.56161C240.753 2.45819 240.073 1.92282 238.683 1.92282C237.391 1.92282 236.712 2.3765 236.712 3.18836C236.712 3.86951 237.192 4.2591 238.417 4.55066C239.659 4.84223 240.867 5.13505 241.679 5.49196C242.64 5.91423 243.401 6.57905 243.401 8.10347C243.401 10.4712 241.579 11.5268 239.012 11.5268C236.296 11.5268 234.409 10.343 234.359 7.92627H236.579C236.612 9.02843 237.556 9.71085 239.03 9.71085C240.387 9.71085 241.166 9.1428 241.166 8.18642C241.166 7.55428 240.835 7.11567 239.461 6.82411C238.103 6.53255 237.225 6.33775 236.448 5.99717C235.271 5.47814 234.61 4.69896 234.61 3.33665C234.61 1.40629 235.951 0.0276489 238.634 0.0276489C241.316 0.0276489 242.972 1.50306 243.054 3.56412H240.868V3.56161Z" fill="#CBCE58"/>
<path d="M257.971 11.1536L257.955 10.1809C257.442 10.9915 256.68 11.3647 255.687 11.3647C253.633 11.3647 252.16 9.77493 252.16 7.08173C252.16 4.66501 253.402 2.96087 255.504 2.96087C256.515 2.96087 257.309 3.3668 257.923 4.21007V0.252594H260.042V11.1536H257.973H257.971ZM258.005 7.35821C258.005 5.62265 257.392 4.76304 256.2 4.76304C254.941 4.76304 254.345 5.58998 254.345 7.22877C254.345 8.65643 255.107 9.64548 256.183 9.64548C257.259 9.64548 258.005 8.70418 258.005 7.35821Z" fill="#CBCE58"/>
<path d="M266.204 11.1536V6.31889C266.204 5.08603 265.84 4.74545 264.814 4.74545C263.687 4.74545 263.141 5.36125 263.141 6.57904V11.1536H260.988V3.17201H263.041V4.33952C263.537 3.44724 264.366 2.96088 265.673 2.96088C267.229 2.96088 268.372 3.88584 268.372 5.6214V11.1523H266.203L266.204 11.1536Z" fill="#CBCE58"/>
<path d="M271.284 7.71513C271.351 8.91531 272.046 9.69449 273.106 9.69449C273.801 9.69449 274.414 9.35392 274.563 8.80221H276.782C276.286 10.441 274.944 11.3647 273.206 11.3647C270.49 11.3647 269.133 9.90437 269.133 7.01763C269.133 4.55191 270.573 2.96213 273.074 2.96213C275.574 2.96213 276.899 4.55191 276.899 7.71513H271.285H271.284ZM274.678 6.38424C274.645 5.20038 273.851 4.63234 273.006 4.63234C272.16 4.63234 271.433 5.28082 271.35 6.38424H274.677H274.678Z" fill="#CBCE58"/>
<path d="M282.827 10.0992C282.53 10.813 281.635 11.234 280.625 11.234C278.92 11.234 277.645 10.0992 277.645 8.34729V3.17203H279.797V8.03813C279.797 9.02719 280.26 9.53114 281.171 9.53114C282.149 9.53114 282.827 8.899 282.827 8.03813V3.17203H284.98V11.3635C284.98 13.6181 283.324 14.9314 281.238 14.9314C278.853 14.9314 277.645 13.6495 277.645 11.5897H279.648C279.648 12.531 280.211 13.1154 281.338 13.1154C282.115 13.1154 282.828 12.4506 282.828 11.3961V10.0979L282.827 10.0992Z" fill="#CBCE58"/>
<path d="M251.499 23.8881V22.7684C250.935 23.677 250.091 24.0993 248.965 24.0993C247.342 24.0993 246.199 22.9154 246.199 21.1635V15.9078H248.352V20.8393C248.352 21.8447 248.815 22.331 249.726 22.331C250.819 22.331 251.399 21.5695 251.399 20.5151V15.9078H253.534V23.8881H251.497H251.499Z" fill="#CBCE58"/>
<path d="M259.381 18.3245C259.265 17.5466 258.834 17.2701 257.858 17.2701C257.047 17.2701 256.583 17.4649 256.583 17.9349C256.583 18.405 257.03 18.5998 257.908 18.8436C258.835 19.1025 259.713 19.2809 260.341 19.5247C261.202 19.8653 261.683 20.417 261.683 21.4551C261.683 23.109 260.441 24.0993 258.123 24.0993C255.623 24.0993 254.233 22.9468 254.199 21.3256H256.419C256.419 22.0721 257.064 22.5095 258.108 22.5095C258.87 22.5095 259.549 22.282 259.549 21.6826C259.549 21.1145 258.937 20.936 258.24 20.7739C256.866 20.4497 256.104 20.2222 255.524 19.8653C254.762 19.3953 254.498 18.7782 254.498 18.0644C254.498 16.7184 255.442 15.6954 257.926 15.6954C260.277 15.6954 261.337 16.6041 261.452 18.3233H259.382L259.381 18.3245Z" fill="#CBCE58"/>
<path d="M262.293 23.8882V12.9872H264.446V23.8882H262.293Z" fill="#CBCE58"/>
<path d="M265.406 14.9502V12.9872H267.559V14.9502H265.406ZM265.406 23.8882V15.9079H267.559V23.8882H265.406Z" fill="#CBCE58"/>
<path d="M278.09 23.8881V19.0535C278.09 18.0958 277.577 17.4147 276.815 17.4147C276.053 17.4147 275.441 18.1448 275.441 19.1175V23.8869H273.288V19.0849C273.288 17.803 272.94 17.4788 271.996 17.4788C271.135 17.4788 270.688 17.9978 270.688 19.0359V23.8856H268.535V15.9053H270.556V17.0728C271.102 16.0184 271.864 15.6942 272.94 15.6942C274.017 15.6942 274.58 16.0348 275.208 16.9597C275.656 16.0838 276.385 15.6942 277.411 15.6942C279.05 15.6942 280.192 16.8617 280.192 18.3547V23.8856H278.09V23.8881Z" fill="#CBCE58"/>
<path d="M242.304 35.8121L240.929 28.7015L237.105 35.8121H234.645V25.0406H236.764L236.647 32.2254L240.091 25.0406H242.261L243.594 32.3674L245.971 25.0406H248.322L244.524 35.8121H242.304Z" fill="#CBCE58"/>
<path d="M248.039 35.8121V27.8318H250.06V28.7894C250.771 27.7187 251.599 27.6219 252.478 27.6219H252.759V29.7797C252.56 29.7471 252.361 29.7307 252.162 29.7307C250.837 29.7307 250.192 30.3792 250.192 31.6611V35.8134H248.039V35.8121Z" fill="#CBCE58"/>
<path d="M253.402 26.8742V24.9111H255.555V26.8742H253.402ZM253.402 35.8121V27.8318H255.555V35.8121H253.402Z" fill="#CBCE58"/>
<path d="M261.155 30.5564H263.158V32.8274C263.158 34.5139 262.164 36.0233 259.863 36.0233C257.561 36.0233 256.535 34.5302 256.535 32.811V25.674H258.654V27.8318H263.158V29.3248H258.654V32.6011C258.654 33.6065 259.019 34.1909 259.896 34.1909C260.774 34.1909 261.155 33.6229 261.155 32.6338V30.5577V30.5564Z" fill="#CBCE58"/>
<path d="M266.003 32.3724C266.07 33.5726 266.765 34.3518 267.824 34.3518C268.52 34.3518 269.133 34.0112 269.282 33.4595H271.501C271.005 35.0983 269.663 36.022 267.925 36.022C265.209 36.022 263.852 34.5617 263.852 31.6749C263.852 29.2092 265.292 27.6194 267.792 27.6194C270.293 27.6194 271.618 29.2092 271.618 32.3724H266.004H266.003ZM269.397 31.0415C269.364 29.8577 268.57 29.2896 267.724 29.2896C266.879 29.2896 266.152 29.9381 266.068 31.0415H269.396H269.397Z" fill="#CBCE58"/>
<path d="M272.359 35.8121V27.8318H274.38V28.7894C275.092 27.7187 275.919 27.6219 276.798 27.6219H277.079V29.7797C276.88 29.7471 276.681 29.7307 276.482 29.7307C275.157 29.7307 274.512 30.3792 274.512 31.6611V35.8134H272.359V35.8121Z" fill="#CBCE58"/>
<path d="M282.263 30.2485C282.148 29.4706 281.717 29.1941 280.741 29.1941C279.93 29.1941 279.466 29.3889 279.466 29.8589C279.466 30.3289 279.913 30.5237 280.791 30.7676C281.718 31.0264 282.596 31.2049 283.224 31.4487C284.085 31.7893 284.566 32.341 284.566 33.3791C284.566 35.0329 283.324 36.0232 281.006 36.0232C278.506 36.0232 277.115 34.8708 277.082 33.2496H279.301C279.301 33.9961 279.947 34.4335 280.991 34.4335C281.753 34.4335 282.431 34.206 282.431 33.6065C282.431 33.0385 281.82 32.86 281.123 32.6979C279.749 32.3737 278.987 32.1462 278.407 31.7893C277.645 31.3193 277.381 30.7022 277.381 29.9884C277.381 28.6424 278.325 27.6194 280.809 27.6194C283.16 27.6194 284.22 28.528 284.335 30.2473H282.265L282.263 30.2485Z" fill="#CBCE58"/>
<path d="M236.946 43.247V47.7889H234.645V37.0173H242.476V38.8987H236.946V41.3481H241.781V43.2457H236.946V43.247Z" fill="#CBCE58"/>
<path d="M244.413 44.3504C244.48 45.5506 245.175 46.3298 246.235 46.3298C246.93 46.3298 247.543 45.9892 247.692 45.4375H249.911C249.415 47.0763 248.073 48 246.335 48C243.619 48 242.262 46.5397 242.262 43.6529C242.262 41.1872 243.702 39.5974 246.203 39.5974C248.703 39.5974 250.028 41.1872 250.028 44.3504H244.414H244.413ZM247.807 43.0195C247.774 41.8357 246.98 41.2676 246.135 41.2676C245.289 41.2676 244.562 41.9161 244.478 43.0195H247.806H247.807Z" fill="#CBCE58"/>
<path d="M255.67 42.2253C255.554 41.4474 255.123 41.1709 254.147 41.1709C253.336 41.1709 252.872 41.3657 252.872 41.8357C252.872 42.3057 253.319 42.5005 254.197 42.7443C255.124 43.0032 256.002 43.1817 256.63 43.4255C257.491 43.7661 257.972 44.3178 257.972 45.3558C257.972 47.0097 256.731 48 254.412 48C251.912 48 250.522 46.8476 250.488 45.2264H252.708C252.708 45.9729 253.353 46.4102 254.397 46.4102C255.159 46.4102 255.838 46.1828 255.838 45.5833C255.838 45.0153 255.226 44.8368 254.529 44.6747C253.155 44.3504 252.393 44.123 251.813 43.7661C251.051 43.296 250.787 42.679 250.787 41.9652C250.787 40.6192 251.731 39.5962 254.215 39.5962C256.566 39.5962 257.626 40.5048 257.741 42.224H255.671L255.67 42.2253Z" fill="#CBCE58"/>
<path d="M263.104 42.5332H265.108V44.8041C265.108 46.4907 264.113 48 261.812 48C259.511 48 258.484 46.507 258.484 44.7878V37.6508H260.604V39.8086H265.108V41.3016H260.604V44.5779C260.604 45.5833 260.968 46.1677 261.845 46.1677C262.723 46.1677 263.104 45.5997 263.104 44.6106V42.5345V42.5332Z" fill="#CBCE58"/>
<path d="M266.035 38.8509V36.8879H268.188V38.8509H266.035ZM266.035 47.7889V39.8085H268.188V47.7889H266.035Z" fill="#CBCE58"/>
<path d="M271.698 47.7889L268.785 39.8086H271.185L272.89 45.0806L274.612 39.8086H276.88L273.949 47.7889H271.696H271.698Z" fill="#CBCE58"/>
<path d="M281.901 47.7889C281.834 47.5941 281.784 47.3189 281.769 47.0751C281.255 47.6268 280.395 48 279.302 48C277.447 48 276.586 47.1077 276.586 45.8095C276.586 43.5059 278.159 43.247 280.328 42.9542C281.404 42.8084 281.702 42.5973 281.702 42.0456C281.702 41.5265 281.172 41.2186 280.328 41.2186C279.35 41.2186 278.954 41.6887 278.854 42.4025H276.85C276.884 40.7474 277.811 39.5962 280.427 39.5962C283.042 39.5962 283.903 40.7323 283.903 42.7431V47.7876H281.899L281.901 47.7889ZM281.752 43.8792C281.536 44.0903 281.155 44.2034 280.361 44.3492C279.136 44.5767 278.739 44.9172 278.739 45.5984C278.739 46.1979 279.103 46.4907 279.781 46.4907C280.891 46.4907 281.719 45.6964 281.735 44.7551L281.752 43.8792Z" fill="#CBCE58"/>
<path d="M284.848 47.7889V36.8879H287V47.7889H284.848Z" fill="#CBCE58"/>
<path d="M249.197 3.17203V8.03813C249.197 8.89774 248.518 9.53114 247.541 9.53114C246.63 9.53114 246.167 9.02845 246.167 8.03813V3.17203H244.014V8.34729C244.014 10.0992 245.289 11.234 246.994 11.234C248.004 11.234 248.898 10.8118 249.197 10.0992V11.3974C249.197 12.4518 248.485 13.1166 247.706 13.1166H244.296H241.993L240.005 21.0165L238.018 13.1166H234.641V23.8882H236.777V16.54L238.814 23.8882H241.098L243.151 16.5073V23.8882H245.303V14.9326H247.605C249.691 14.9326 251.347 13.6193 251.347 11.3647V3.17203H249.194H249.197Z" fill="#CBCE58"/>
</g>
<defs>
<clipPath id="clip0_1558_2779">
<rect width="108" height="48" fill="white" transform="translate(179)"/>
</clipPath>
</defs>
</svg>
