<svg width="28" height="28" viewBox="0 0 28 28" fill="none" xmlns="http://www.w3.org/2000/svg">
<path d="M15.3125 20.125V10.5C15.3139 9.10806 15.8675 7.77354 16.8518 6.78929C17.836 5.80503 19.1706 5.25145 20.5625 5.25C20.7946 5.25 21.0171 5.34219 21.1812 5.50628C21.3453 5.67038 21.4375 5.89294 21.4375 6.125C21.4375 6.35706 21.3453 6.57963 21.1812 6.74372C21.0171 6.90781 20.7946 7 20.5625 7C19.6342 7 18.744 7.36875 18.0876 8.02513C17.4312 8.6815 17.0625 9.57174 17.0625 10.5V11.375H23.625C24.0891 11.375 24.5342 11.5594 24.8624 11.8876C25.1906 12.2158 25.375 12.6609 25.375 13.125V20.125C25.375 20.5891 25.1906 21.0342 24.8624 21.3624C24.5342 21.6906 24.0891 21.875 23.625 21.875H17.0625C16.5984 21.875 16.1533 21.6906 15.8251 21.3624C15.4969 21.0342 15.3125 20.5891 15.3125 20.125ZM4.375 21.875H10.9375C11.4016 21.875 11.8467 21.6906 12.1749 21.3624C12.5031 21.0342 12.6875 20.5891 12.6875 20.125V13.125C12.6875 12.6609 12.5031 12.2158 12.1749 11.8876C11.8467 11.5594 11.4016 11.375 10.9375 11.375H4.375V10.5C4.375 9.57174 4.74375 8.6815 5.40013 8.02513C6.0565 7.36875 6.94674 7 7.875 7C8.10707 7 8.32962 6.90781 8.49372 6.74372C8.65781 6.57963 8.75 6.35706 8.75 6.125C8.75 5.89294 8.65781 5.67038 8.49372 5.50628C8.32962 5.34219 8.10707 5.25 7.875 5.25C6.48306 5.25145 5.14854 5.80503 4.16429 6.78929C3.18003 7.77354 2.62645 9.10806 2.625 10.5V20.125C2.625 20.5891 2.80938 21.0342 3.13756 21.3624C3.46575 21.6906 3.91087 21.875 4.375 21.875Z" fill="#4656CD"/>
</svg>
