<svg width="211" height="96" viewBox="0 0 211 96" fill="none" xmlns="http://www.w3.org/2000/svg">
<g clip-path="url(#clip0_689_718)">
<path d="M74.4511 0H63.817H53.1805H42.5439H31.9073H21.2732H10.6366H0V10.6672V21.3344V31.9992H10.6366H21.2732H31.9073H42.5439H53.1805V21.3344H42.5439H31.9073H21.2732H10.6366V10.6672H21.2732H31.9073H42.5439H53.1805H63.817V21.3344V31.9992H74.4511V21.3344V10.6672H85.0877V21.3344V31.9992V42.6664H74.4511H63.817H53.1805H42.5439H31.9073H21.2732V53.3336V64.0008V74.6656V85.3328V96H31.9073H42.5439H53.1805H63.817H74.4511V85.3328V74.6656H85.0877H95.7243V64.0008H85.0877H74.4511H63.817V74.6656V85.3328H53.1805V74.6656V64.0008H42.5439V74.6656V85.3328H31.9073V74.6656V64.0008V53.3336H42.5439H53.1805H63.817H74.4511H85.0877H95.7243V42.6664V31.9992V21.3344V10.6672V0H85.0877H74.4511Z" fill="#CBCE58"/>
<path d="M0 53.3332V64.0005V74.6652V85.3324V95.9996H10.6366V85.3324V74.6652V64.0005V53.3332V42.666H0V53.3332Z" fill="#CBCE58"/>
<path d="M95.7225 90.6666C95.7225 87.7209 93.3414 85.333 90.4042 85.333C87.467 85.333 85.0859 87.7209 85.0859 90.6666C85.0859 93.6123 87.467 96.0002 90.4042 96.0002C93.3414 96.0002 95.7225 93.6123 95.7225 90.6666Z" fill="#CBCE58"/>
<path d="M120.873 7.1226C120.647 4.91577 119.319 3.84502 116.602 3.84502C114.079 3.84502 112.753 4.75239 112.753 6.3761C112.753 7.73841 113.69 8.51759 116.084 9.10071C118.51 9.68384 120.871 10.2695 122.457 10.9833C124.334 11.8278 125.82 13.1575 125.82 16.2063C125.82 20.9417 122.262 23.0531 117.246 23.0531C111.941 23.0531 108.254 20.6854 108.156 15.8519H112.492C112.557 18.0563 114.402 19.4211 117.282 19.4211C119.933 19.4211 121.454 18.285 121.454 16.3722C121.454 15.1079 120.808 14.2307 118.124 13.6476C115.47 13.0645 113.755 12.6749 112.236 11.9937C109.938 10.9557 108.645 9.39731 108.645 6.67269C108.645 2.81198 111.267 0.0546875 116.507 0.0546875C121.748 0.0546875 124.983 3.00552 125.144 7.12763H120.873V7.1226Z" fill="#CBCE58"/>
<path d="M154.291 22.3068L154.258 20.3614C153.256 21.9826 151.767 22.7291 149.827 22.7291C145.815 22.7291 142.938 19.5495 142.938 14.1632C142.938 9.32972 145.364 5.92144 149.471 5.92144C151.446 5.92144 152.998 6.7333 154.196 8.41984V0.504883H158.336V22.3068H154.293H154.291ZM154.356 14.7161C154.356 11.245 153.158 9.52578 150.83 9.52578C148.371 9.52578 147.206 11.1796 147.206 14.4572C147.206 17.3125 148.694 19.2907 150.797 19.2907C152.9 19.2907 154.356 17.4081 154.356 14.7161Z" fill="#CBCE58"/>
<path d="M170.37 22.3073V12.6379C170.37 10.1722 169.658 9.49102 167.653 9.49102C165.453 9.49102 164.385 10.7226 164.385 13.1582V22.3073H160.18V6.34414H164.19V8.67917C165.16 6.89459 166.779 5.92188 169.333 5.92188C172.373 5.92188 174.606 7.7718 174.606 11.2429V22.3048H170.368L170.37 22.3073Z" fill="#CBCE58"/>
<path d="M180.297 15.4298C180.427 17.8302 181.785 19.3886 183.856 19.3886C185.214 19.3886 186.412 18.7074 186.703 17.604H191.039C190.069 20.8816 187.447 22.729 184.051 22.729C178.745 22.729 176.094 19.8083 176.094 14.0348C176.094 9.10338 178.908 5.92383 183.793 5.92383C188.678 5.92383 191.267 9.10338 191.267 15.4298H180.299H180.297ZM186.928 12.768C186.863 10.4003 185.312 9.26425 183.66 9.26425C182.009 9.26425 180.587 10.5612 180.425 12.768H186.926H186.928Z" fill="#CBCE58"/>
<path d="M202.848 20.1981C202.267 21.6257 200.52 22.4677 198.545 22.4677C195.214 22.4677 192.723 20.1981 192.723 16.6943V6.34375H196.928V16.076C196.928 18.0541 197.833 19.062 199.612 19.062C201.522 19.062 202.848 17.7977 202.848 16.076V6.34375H207.053V22.7266C207.053 27.2358 203.818 29.8624 199.743 29.8624C195.084 29.8624 192.723 27.2987 192.723 23.1791H196.637C196.637 25.0617 197.738 26.2304 199.938 26.2304C201.457 26.2304 202.85 24.9008 202.85 22.792V20.1956L202.848 20.1981Z" fill="#CBCE58"/>
<path d="M141.642 47.7761V45.5365C140.542 47.3538 138.893 48.1983 136.693 48.1983C133.522 48.1983 131.289 45.8306 131.289 42.3268V31.8154H135.495V41.6783C135.495 43.6891 136.399 44.6618 138.179 44.6618C140.314 44.6618 141.447 43.1387 141.447 41.0299V31.8154H145.62V47.7761H141.64H141.642Z" fill="#CBCE58"/>
<path d="M157.041 36.6488C156.815 35.093 155.973 34.54 154.066 34.54C152.482 34.54 151.575 34.9296 151.575 35.8697C151.575 36.8097 152.449 37.1993 154.164 37.6869C155.976 38.2047 157.69 38.5616 158.918 39.0492C160.6 39.7304 161.54 40.8338 161.54 42.9099C161.54 46.2177 159.113 48.1983 154.585 48.1983C149.7 48.1983 146.983 45.8934 146.918 42.651H151.254C151.254 44.144 152.514 45.0187 154.555 45.0187C156.043 45.0187 157.369 44.5638 157.369 43.3649C157.369 42.2288 156.174 41.8719 154.813 41.5476C152.128 40.8991 150.64 40.4442 149.507 39.7304C148.018 38.7903 147.502 37.5562 147.502 36.1285C147.502 33.4366 149.347 31.3906 154.199 31.3906C158.793 31.3906 160.863 33.2079 161.088 36.6463H157.043L157.041 36.6488Z" fill="#CBCE58"/>
<path d="M162.734 47.7766V25.9746H166.94V47.7766H162.734Z" fill="#CBCE58"/>
<path d="M168.816 29.9007V25.9746H173.022V29.9007H168.816ZM168.816 47.7766V31.8159H173.022V47.7766H168.816Z" fill="#CBCE58"/>
<path d="M193.592 47.7766V38.1072C193.592 36.1919 192.59 34.8296 191.101 34.8296C189.612 34.8296 188.417 36.29 188.417 38.2354V47.7741H184.211V38.1701C184.211 35.6063 183.532 34.9578 181.688 34.9578C180.006 34.9578 179.131 35.9959 179.131 38.072V47.7716H174.926V31.8109H178.873V34.146C179.941 32.0372 181.43 31.3887 183.532 31.3887C185.635 31.3887 186.735 32.0698 187.963 33.9197C188.838 32.1679 190.262 31.3887 192.267 31.3887C195.47 31.3887 197.7 33.7237 197.7 36.7097V47.7716H193.592V47.7766Z" fill="#CBCE58"/>
<path d="M123.676 71.6241L120.989 57.4028L113.518 71.6241H108.711V50.0811H112.851L112.623 64.4506L119.353 50.0811H123.591L126.195 64.7347L130.839 50.0811H135.433L128.012 71.6241H123.676Z" fill="#CBCE58"/>
<path d="M134.879 71.6245V55.6639H138.826V57.5792C140.217 55.4377 141.834 55.2441 143.551 55.2441H144.099V59.5598C143.711 59.4944 143.323 59.4618 142.934 59.4618C140.345 59.4618 139.084 60.7587 139.084 63.3225V71.627H134.879V71.6245Z" fill="#CBCE58"/>
<path d="M145.359 53.7483V49.8223H149.565V53.7483H145.359ZM145.359 71.6242V55.6636H149.565V71.6242H145.359Z" fill="#CBCE58"/>
<path d="M160.502 61.1125H164.416V65.6544C164.416 69.0275 162.474 72.0462 157.978 72.0462C153.482 72.0462 151.477 69.0602 151.477 65.6217V51.3477H155.617V55.6633H164.416V58.6493H155.617V65.202C155.617 67.2128 156.329 68.3815 158.043 68.3815C159.757 68.3815 160.502 67.2454 160.502 65.2673V61.1151V61.1125Z" fill="#CBCE58"/>
<path d="M169.98 64.7453C170.111 67.1456 171.469 68.704 173.539 68.704C174.898 68.704 176.096 68.0228 176.386 66.9194H180.722C179.752 70.197 177.131 72.0444 173.735 72.0444C168.429 72.0444 165.777 69.1237 165.777 63.3503C165.777 58.4188 168.592 55.2393 173.477 55.2393C178.361 55.2393 180.95 58.4188 180.95 64.7453H169.983H169.98ZM176.612 62.0835C176.547 59.7158 174.995 58.5797 173.344 58.5797C171.692 58.5797 170.271 59.8766 170.108 62.0835H176.609H176.612Z" fill="#CBCE58"/>
<path d="M182.402 71.6245V55.6639H186.35V57.5792C187.741 55.4377 189.357 55.2441 191.074 55.2441H191.623V59.5598C191.234 59.4944 190.846 59.4618 190.457 59.4618C187.868 59.4618 186.608 60.7587 186.608 63.3225V71.627H182.402V71.6245Z" fill="#CBCE58"/>
<path d="M201.748 60.4975C201.522 58.9416 200.68 58.3887 198.773 58.3887C197.189 58.3887 196.282 58.7782 196.282 59.7183C196.282 60.6583 197.156 61.0479 198.871 61.5355C200.683 62.0533 202.397 62.4102 203.625 62.8978C205.307 63.579 206.247 64.6824 206.247 66.7586C206.247 70.0663 203.82 72.0469 199.292 72.0469C194.407 72.0469 191.69 69.7421 191.625 66.4997H195.961C195.961 67.9927 197.221 68.8674 199.262 68.8674C200.75 68.8674 202.076 68.4124 202.076 67.2135C202.076 66.0774 200.881 65.7205 199.52 65.3962C196.836 64.7478 195.347 64.2928 194.214 63.579C192.725 62.639 192.209 61.4048 192.209 59.9772C192.209 57.2852 194.054 55.2393 198.906 55.2393C203.5 55.2393 205.57 57.0565 205.795 60.4949H201.75L201.748 60.4975Z" fill="#CBCE58"/>
<path d="M113.207 86.4935V95.5773H108.711V74.0342H124.012V77.7969H113.207V82.6957H122.653V86.491H113.207V86.4935Z" fill="#CBCE58"/>
<path d="M127.793 88.7013C127.923 91.1017 129.282 92.66 131.352 92.66C132.71 92.66 133.908 91.9789 134.199 90.8755H138.535C137.565 94.1531 134.943 96.0005 131.547 96.0005C126.241 96.0005 123.59 93.0798 123.59 87.3063C123.59 82.3749 126.404 79.1953 131.289 79.1953C136.174 79.1953 138.763 82.3749 138.763 88.7013H127.795H127.793ZM134.424 86.0395C134.359 83.6718 132.808 82.5357 131.156 82.5357C129.505 82.5357 128.084 83.8327 127.921 86.0395H134.422H134.424Z" fill="#CBCE58"/>
<path d="M149.791 84.4506C149.565 82.8947 148.723 82.3418 146.816 82.3418C145.232 82.3418 144.325 82.7314 144.325 83.6714C144.325 84.6115 145.199 85.001 146.914 85.4887C148.726 86.0064 150.44 86.3634 151.668 86.851C153.35 87.5321 154.29 88.6355 154.29 90.7117C154.29 94.0194 151.863 96 147.335 96C142.45 96 139.733 93.6952 139.668 90.4528H144.004C144.004 91.9458 145.264 92.8205 147.305 92.8205C148.793 92.8205 150.119 92.3655 150.119 91.1666C150.119 90.0305 148.924 89.6736 147.563 89.3494C144.878 88.7009 143.39 88.2459 142.257 87.5321C140.768 86.5921 140.252 85.358 140.252 83.9303C140.252 81.2384 142.097 79.1924 146.949 79.1924C151.543 79.1924 153.613 81.0096 153.838 84.4481H149.793L149.791 84.4506Z" fill="#CBCE58"/>
<path d="M164.318 85.0666H168.233V89.6085C168.233 92.9816 166.29 96.0003 161.794 96.0003C157.298 96.0003 155.293 93.0143 155.293 89.5758V75.3018H159.433V79.6174H168.233V82.6034H159.433V89.1561C159.433 91.1669 160.145 92.3356 161.859 92.3356C163.574 92.3356 164.318 91.1995 164.318 89.2214V85.0692V85.0666Z" fill="#CBCE58"/>
<path d="M170.047 77.7015V73.7754H174.252V77.7015H170.047ZM170.047 95.5774V79.6167H174.252V95.5774H170.047Z" fill="#CBCE58"/>
<path d="M181.11 95.5778L175.418 79.6172H180.107L183.438 90.1612L186.801 79.6172H191.233L185.506 95.5778H181.105H181.11Z" fill="#CBCE58"/>
<path d="M201.036 95.5778C200.905 95.1882 200.808 94.6377 200.778 94.1501C199.775 95.2535 198.093 96 195.958 96C192.334 96 190.652 94.2155 190.652 91.619C190.652 87.0118 193.725 86.4941 197.963 85.9084C200.066 85.6168 200.647 85.1946 200.647 84.0912C200.647 83.0531 199.612 82.4373 197.963 82.4373C196.053 82.4373 195.279 83.3773 195.083 84.805H191.169C191.234 81.4947 193.046 79.1924 198.156 79.1924C203.266 79.1924 204.948 81.4646 204.948 85.4861V95.5753H201.033L201.036 95.5778ZM200.745 87.7583C200.324 88.1806 199.58 88.4068 198.028 88.6984C195.635 89.1533 194.858 89.8345 194.858 91.1968C194.858 92.3957 195.57 92.9814 196.895 92.9814C199.063 92.9814 200.68 91.3928 200.712 89.5102L200.745 87.7583Z" fill="#CBCE58"/>
<path d="M206.793 95.5774V73.7754H210.998V95.5774H206.793Z" fill="#CBCE58"/>
<path d="M137.146 6.34375V16.076C137.146 17.7952 135.82 19.062 133.91 19.062C132.131 19.062 131.226 18.0566 131.226 16.076V6.34375H127.02V16.6943C127.02 20.1981 129.512 22.4677 132.842 22.4677C134.815 22.4677 136.562 21.6232 137.146 20.1981V22.7945C137.146 24.9033 135.755 26.2329 134.233 26.2329H127.572H123.07L119.188 42.0327L115.306 26.2329H108.707V47.776H112.88V33.0797L116.86 47.776H121.324L125.334 33.0143V47.776H129.539V29.8649H134.035C138.111 29.8649 141.346 27.2383 141.346 22.7292V6.34375H137.141H137.146Z" fill="#CBCE58"/>
</g>
<defs>
<clipPath id="clip0_689_718">
<rect width="211" height="96" fill="white"/>
</clipPath>
</defs>
</svg>
