<svg width="274" height="125" viewBox="0 0 274 125" fill="none" xmlns="http://www.w3.org/2000/svg">
<g clip-path="url(#clip0_1223_855)">
<path d="M96.6806 0H82.8714H69.059H55.2465H41.4341H27.6249H13.8124H0V13.8896V27.7792V41.6656H13.8124H27.6249H41.4341H55.2465H69.059V27.7792H55.2465H41.4341H27.6249H13.8124V13.8896H27.6249H41.4341H55.2465H69.059H82.8714V27.7792V41.6656H96.6806V27.7792V13.8896H110.493V27.7792V41.6656V55.5552H96.6806H82.8714H69.059H55.2465H41.4341H27.6249V69.4448V83.3344V97.2208V111.11V125H41.4341H55.2465H69.059H82.8714H96.6806V111.11V97.2208H110.493H124.306V83.3344H110.493H96.6806H82.8714V97.2208V111.11H69.059V97.2208V83.3344H55.2465V97.2208V111.11H41.4341V97.2208V83.3344V69.4448H55.2465H69.059H82.8714H96.6806H110.493H124.306V55.5552V41.6656V27.7792V13.8896V0H110.493H96.6806Z" fill="#2A9E9B"/>
<path d="M0 69.4448V83.3344V97.2207V111.11V125H13.8124V111.11V97.2207V83.3344V69.4448V55.5552H0V69.4448Z" fill="#2A9E9B"/>
<path d="M124.305 118.055C124.305 114.22 121.213 111.11 117.398 111.11C113.584 111.11 110.492 114.22 110.492 118.055C110.492 121.891 113.584 125 117.398 125C121.213 125 124.305 121.891 124.305 118.055Z" fill="#2A9E9B"/>
<path d="M156.963 9.27479C156.67 6.40131 154.945 5.00711 151.417 5.00711C148.14 5.00711 146.418 6.18858 146.418 8.30278C146.418 10.0766 147.635 11.0912 150.743 11.8505C153.894 12.6097 156.96 13.3723 159.02 14.3018C161.458 15.4014 163.388 17.1327 163.388 21.1026C163.388 27.2685 158.766 30.0176 152.254 30.0176C145.364 30.0176 140.576 26.9346 140.449 20.6411H146.08C146.164 23.5113 148.56 25.2884 152.299 25.2884C155.742 25.2884 157.718 23.8091 157.718 21.3186C157.718 19.6724 156.878 18.5302 153.393 17.7709C149.946 17.0116 147.72 16.5043 145.748 15.6174C142.763 14.2658 141.084 12.2366 141.084 8.68897C141.084 3.662 144.488 0.0717773 151.293 0.0717773C158.099 0.0717773 162.3 3.914 162.509 9.28134H156.963V9.27479Z" fill="#2A9E9B"/>
<path d="M200.36 29.0457L200.318 26.5126C199.016 28.6235 197.083 29.5955 194.564 29.5955C189.353 29.5955 185.617 25.4555 185.617 18.4419C185.617 12.1484 188.768 7.71052 194.102 7.71052C196.666 7.71052 198.681 8.76763 200.237 10.9637V0.657715H205.613V29.0457H200.364H200.36ZM200.445 19.1619C200.445 14.6422 198.889 12.4037 195.866 12.4037C192.673 12.4037 191.16 14.5571 191.16 18.8248C191.16 22.5427 193.093 25.1184 195.824 25.1184C198.554 25.1184 200.445 22.6671 200.445 19.1619Z" fill="#2A9E9B"/>
<path d="M221.237 29.0456V16.4553C221.237 13.2447 220.313 12.3578 217.709 12.3578C214.852 12.3578 213.465 13.9614 213.465 17.1327V29.0456H208.004V8.26027H213.211V11.3007C214.471 8.97701 216.573 7.71045 219.89 7.71045C223.837 7.71045 226.737 10.1192 226.737 14.6389V29.0423H221.234L221.237 29.0456Z" fill="#2A9E9B"/>
<path d="M234.13 20.0915C234.299 23.217 236.063 25.2461 238.751 25.2461C240.515 25.2461 242.071 24.3592 242.449 22.9224H248.079C246.819 27.1901 243.415 29.5956 239.005 29.5956C232.115 29.5956 228.672 25.7926 228.672 18.2751C228.672 11.8539 232.327 7.71387 238.67 7.71387C245.013 7.71387 248.375 11.8539 248.375 20.0915H234.133H234.13ZM242.741 16.6256C242.657 13.5427 240.642 12.0634 238.497 12.0634C236.353 12.0634 234.507 13.7521 234.296 16.6256H242.738H242.741Z" fill="#2A9E9B"/>
<path d="M263.414 26.2997C262.659 28.1587 260.391 29.255 257.826 29.255C253.501 29.255 250.266 26.2997 250.266 21.7375V8.26025H255.727V20.9324C255.727 23.5081 256.902 24.8204 259.212 24.8204C261.692 24.8204 263.414 23.1742 263.414 20.9324V8.26025H268.875V29.5921C268.875 35.4635 264.674 38.8835 259.382 38.8835C253.331 38.8835 250.266 35.5453 250.266 30.1812H255.349C255.349 32.6325 256.778 34.1544 259.636 34.1544C261.608 34.1544 263.417 32.4231 263.417 29.6772V26.2965L263.414 26.2997Z" fill="#2A9E9B"/>
<path d="M183.933 62.2088V59.2928C182.504 61.659 180.363 62.7586 177.505 62.7586C173.388 62.7586 170.488 59.6757 170.488 55.1135V41.4268H175.949V54.2691C175.949 56.8873 177.124 58.1539 179.435 58.1539C182.208 58.1539 183.679 56.1706 183.679 53.4247V41.4268H189.098V62.2088H183.93H183.933Z" fill="#2A9E9B"/>
<path d="M203.93 47.7202C203.638 45.6943 202.544 44.9743 200.067 44.9743C198.01 44.9743 196.832 45.4816 196.832 46.7056C196.832 47.9296 197.968 48.4369 200.194 49.0718C202.547 49.746 204.773 50.2107 206.368 50.8457C208.552 51.7326 209.772 53.1693 209.772 55.8726C209.772 60.1796 206.622 62.7585 200.741 62.7585C194.398 62.7585 190.87 59.7574 190.785 55.5355H196.416C196.416 57.4795 198.053 58.6185 200.702 58.6185C202.635 58.6185 204.357 58.0261 204.357 56.465C204.357 54.9857 202.804 54.521 201.037 54.0988C197.551 53.2544 195.618 52.662 194.147 51.7326C192.214 50.5086 191.543 48.9016 191.543 47.0427C191.543 43.5376 193.939 40.8735 200.24 40.8735C206.205 40.8735 208.894 43.2397 209.187 47.7169H203.934L203.93 47.7202Z" fill="#2A9E9B"/>
<path d="M211.324 62.2088V33.8208H216.785V62.2088H211.324Z" fill="#2A9E9B"/>
<path d="M219.219 38.9329V33.8208H224.68V38.9329H219.219ZM219.219 62.2088V41.4267H224.68V62.2088H219.219Z" fill="#2A9E9B"/>
<path d="M251.396 62.2085V49.6182C251.396 47.1244 250.095 45.3505 248.161 45.3505C246.228 45.3505 244.676 47.252 244.676 49.7851V62.2053H239.214V49.7C239.214 46.3618 238.332 45.5174 235.937 45.5174C233.753 45.5174 232.617 46.8691 232.617 49.5724V62.202H227.156V41.4199H232.282V44.4603C233.669 41.7145 235.602 40.8701 238.332 40.8701C241.063 40.8701 242.492 41.757 244.087 44.1658C245.222 41.8847 247.071 40.8701 249.675 40.8701C253.834 40.8701 256.731 43.9105 256.731 47.7986V62.202H251.396V62.2085Z" fill="#2A9E9B"/>
<path d="M160.601 93.2608L157.112 74.7435L147.41 93.2608H141.168V65.21H146.545L146.248 83.9204L154.987 65.21H160.49L163.872 84.2902L169.903 65.21H175.868L166.232 93.2608H160.601Z" fill="#2A9E9B"/>
<path d="M175.152 93.2607V72.4787H180.278V74.9725C182.085 72.1841 184.184 71.9321 186.413 71.9321H187.126V77.5515C186.622 77.4664 186.117 77.4238 185.613 77.4238C182.251 77.4238 180.614 79.1126 180.614 82.4508V93.264H175.152V93.2607Z" fill="#2A9E9B"/>
<path d="M188.762 69.9846V64.8726H194.223V69.9846H188.762ZM188.762 93.2605V72.4785H194.223V93.2605H188.762Z" fill="#2A9E9B"/>
<path d="M208.423 79.5741H213.507V85.488C213.507 89.88 210.984 93.8106 205.146 93.8106C199.307 93.8106 196.703 89.9226 196.703 85.4454V66.8594H202.08V72.4787H213.507V76.3668H202.08V84.8989C202.08 87.5171 203.004 89.0389 205.23 89.0389C207.456 89.0389 208.423 87.5596 208.423 84.984V79.5773V79.5741Z" fill="#2A9E9B"/>
<path d="M220.731 84.3034C220.901 87.4289 222.665 89.458 225.353 89.458C227.117 89.458 228.673 88.5711 229.05 87.1343H234.681C233.421 91.402 230.017 93.8075 225.607 93.8075C218.717 93.8075 215.273 90.0045 215.273 82.487C215.273 76.0658 218.928 71.9258 225.272 71.9258C231.615 71.9258 234.977 76.0658 234.977 84.3034H220.735H220.731ZM229.343 80.8375C229.258 77.7546 227.244 76.2753 225.099 76.2753C222.954 76.2753 221.109 77.964 220.897 80.8375H229.34H229.343Z" fill="#2A9E9B"/>
<path d="M236.863 93.2607V72.4787H241.989V74.9725C243.796 72.1841 245.895 71.9321 248.124 71.9321H248.837V77.5515C248.332 77.4664 247.828 77.4238 247.323 77.4238C243.962 77.4238 242.324 79.1126 242.324 82.4508V93.264H236.863V93.2607Z" fill="#2A9E9B"/>
<path d="M261.985 78.7724C261.692 76.7466 260.599 76.0266 258.122 76.0266C256.065 76.0266 254.887 76.5338 254.887 77.7578C254.887 78.9819 256.023 79.4891 258.249 80.1241C260.602 80.7982 262.828 81.263 264.423 81.8979C266.607 82.7848 267.827 84.2216 267.827 86.9249C267.827 91.2318 264.677 93.8108 258.796 93.8108C252.452 93.8108 248.924 90.8096 248.84 86.5878H254.47C254.47 88.5318 256.107 89.6707 258.757 89.6707C260.69 89.6707 262.411 89.0783 262.411 87.5172C262.411 86.0379 260.859 85.5732 259.092 85.151C255.606 84.3066 253.673 83.7143 252.202 82.7848C250.269 81.5608 249.598 79.9539 249.598 78.0949C249.598 74.5898 251.994 71.9258 258.294 71.9258C264.26 71.9258 266.948 74.292 267.241 78.7691H261.988L261.985 78.7724Z" fill="#2A9E9B"/>
<path d="M147.007 112.623V124.45H141.168V96.3994H161.037V101.299H147.007V107.677H159.273V112.619H147.007V112.623Z" fill="#2A9E9B"/>
<path d="M165.95 115.496C166.119 118.621 167.883 120.65 170.572 120.65C172.336 120.65 173.891 119.763 174.269 118.327H179.899C178.64 122.594 175.235 125 170.825 125C163.936 125 160.492 121.197 160.492 113.679C160.492 107.258 164.147 103.118 170.49 103.118C176.833 103.118 180.195 107.258 180.195 115.496H165.953H165.95ZM174.562 112.03C174.477 108.947 172.463 107.468 170.318 107.468C168.173 107.468 166.328 109.156 166.116 112.03H174.558H174.562Z" fill="#2A9E9B"/>
<path d="M194.516 109.962C194.223 107.936 193.13 107.216 190.653 107.216C188.596 107.216 187.418 107.723 187.418 108.947C187.418 110.171 188.554 110.679 190.78 111.314C193.133 111.988 195.359 112.452 196.954 113.087C199.138 113.974 200.358 115.411 200.358 118.114C200.358 122.421 197.208 125 191.327 125C184.984 125 181.456 121.999 181.371 117.777H187.002C187.002 119.721 188.639 120.86 191.288 120.86C193.221 120.86 194.943 120.268 194.943 118.707C194.943 117.227 193.39 116.763 191.623 116.34C188.137 115.496 186.204 114.904 184.733 113.974C182.8 112.75 182.129 111.143 182.129 109.284C182.129 105.779 184.525 103.115 190.826 103.115C196.791 103.115 199.48 105.481 199.772 109.959H194.52L194.516 109.962Z" fill="#2A9E9B"/>
<path d="M213.38 110.764H218.464V116.677C218.464 121.069 215.941 125 210.103 125C204.264 125 201.66 121.112 201.66 116.635V98.0488H207.037V103.668H218.464V107.556H207.037V116.088C207.037 118.707 207.961 120.228 210.187 120.228C212.413 120.228 213.38 118.749 213.38 116.173V110.767V110.764Z" fill="#2A9E9B"/>
<path d="M220.816 101.174V96.062H226.278V101.174H220.816ZM220.816 124.45V103.668H226.278V124.45H220.816Z" fill="#2A9E9B"/>
<path d="M235.184 124.45L227.793 103.668H233.882L238.208 117.397L242.575 103.668H248.329L240.893 124.45H235.178H235.184Z" fill="#2A9E9B"/>
<path d="M261.058 124.45C260.889 123.943 260.762 123.226 260.723 122.591C259.421 124.028 257.237 125 254.464 125C249.758 125 247.574 122.677 247.574 119.296C247.574 113.297 251.564 112.623 257.068 111.86C259.798 111.48 260.553 110.931 260.553 109.494C260.553 108.142 259.209 107.34 257.068 107.34C254.588 107.34 253.582 108.564 253.328 110.423H248.245C248.329 106.113 250.682 103.115 257.318 103.115C263.955 103.115 266.138 106.074 266.138 111.31V124.447H261.055L261.058 124.45ZM260.68 114.269C260.134 114.819 259.167 115.113 257.152 115.493C254.044 116.085 253.035 116.972 253.035 118.746C253.035 120.307 253.96 121.07 255.681 121.07C258.497 121.07 260.596 119.001 260.638 116.55L260.68 114.269Z" fill="#2A9E9B"/>
<path d="M268.539 124.45V96.062H274V124.45H268.539Z" fill="#2A9E9B"/>
<path d="M178.094 8.26025V20.9324C178.094 23.171 176.372 24.8204 173.892 24.8204C171.581 24.8204 170.406 23.5113 170.406 20.9324V8.26025H164.945V21.7375C164.945 26.2997 168.18 29.255 172.506 29.255C175.067 29.255 177.335 28.1554 178.094 26.2997V29.6805C178.094 32.4264 176.288 34.1576 174.312 34.1576H165.661H159.816L154.775 54.7302L149.733 34.1576H141.164V62.2085H146.583V43.0727L151.751 62.2085H157.548L162.755 42.9876V62.2085H168.216V38.8868H174.055C179.347 38.8868 183.548 35.4668 183.548 29.5954V8.26025H178.087H178.094Z" fill="#2A9E9B"/>
</g>
<defs>
<clipPath id="clip0_1223_855">
<rect width="274" height="125" fill="white"/>
</clipPath>
</defs>
</svg>
