<svg width="720" height="646" viewBox="0 0 720 646" fill="none" xmlns="http://www.w3.org/2000/svg">
<g clip-path="url(#clip0_1558_2992)">
<path d="M366.449 424.033C365.47 424.033 364.491 424.033 363.512 424.09C362.534 424.09 361.555 424.033 360.576 424.033C289.463 424.033 249.386 464.526 249.386 539.474V582.844H63.2246V396.884H106.641C181.67 396.884 222.207 357.655 222.207 287.079C222.207 246.586 206.084 217.826 186.449 198.614C206.084 179.46 222.207 151.103 222.207 111.07C222.207 40.091 181.67 0 106.641 0H0V63.1563H113.608C144.587 63.1563 165.489 84.0933 165.489 114.981C165.489 145.869 144.53 166.806 113.608 166.806H0V229.962H113.608C144.587 229.962 165.489 250.9 165.489 281.787C165.489 312.675 144.53 333.612 113.608 333.612H0V645.885H312.61V532.399C312.61 501.799 333.109 481.035 363.512 480.574C393.916 481.035 414.415 501.799 414.415 532.399V645.885H477.639V539.359C477.639 464.411 437.505 423.918 366.449 423.918" fill="#2A9E9B"/>
<path d="M608.809 424.033C607.831 424.033 606.852 424.033 605.873 424.091C604.894 424.091 603.915 424.033 602.936 424.033C531.823 424.033 491.746 464.527 491.746 539.475V646H554.971V532.515C554.971 501.914 575.47 481.15 605.873 480.69C636.276 481.15 656.775 501.914 656.775 532.515V646H719.999V539.475C719.999 464.527 679.865 424.033 608.752 424.033" fill="#2A9E9B"/>
<path d="M111.074 503.467C111.074 520.895 125.239 535.045 142.687 535.045C160.134 535.045 174.299 520.895 174.299 503.467C174.299 486.038 160.134 471.889 142.687 471.889C125.239 471.889 111.074 486.038 111.074 503.467Z" fill="#2A9E9B"/>
</g>
<defs>
<clipPath id="clip0_1558_2992">
<rect width="720" height="646" fill="white"/>
</clipPath>
</defs>
</svg>
