<svg width="16" height="179" viewBox="0 0 16 179" fill="none" xmlns="http://www.w3.org/2000/svg">
<circle cx="8" cy="171" r="8" transform="rotate(-90 8 171)" fill="#2A9E9B"/>
<circle cx="8" cy="150.625" r="8" transform="rotate(-90 8 150.625)" fill="#2A9E9B"/>
<circle cx="8" cy="130.25" r="8" transform="rotate(-90 8 130.25)" fill="#2A9E9B"/>
<circle cx="8" cy="109.875" r="8" transform="rotate(-90 8 109.875)" fill="#2A9E9B"/>
<circle cx="8" cy="89.5" r="8" transform="rotate(-90 8 89.5)" fill="#2A9E9B"/>
<circle cx="8" cy="69.125" r="8" transform="rotate(-90 8 69.125)" fill="#2A9E9B"/>
<circle cx="8" cy="48.75" r="8" transform="rotate(-90 8 48.75)" fill="#2A9E9B"/>
<circle cx="8" cy="28.375" r="8" transform="rotate(-90 8 28.375)" fill="#2A9E9B"/>
<circle cx="8" cy="8" r="8" transform="rotate(-90 8 8)" fill="#2A9E9B"/>
<rect x="6" y="2" width="4" height="161" fill="#2A9E9B"/>
</svg>
